<?xml version="1.0" encoding="UTF-8" standalone="no"?>
<!DOCTYPE svg PUBLIC "-//W3C//DTD SVG 1.1//EN"
 "http://www.w3.org/Graphics/SVG/1.1/DTD/svg11.dtd">
<!-- Generated by graphviz version 5.0.0 (20220707.1540)
 -->
<!-- Title: dependencies Pages: 1 -->
<svg width="598pt" height="174pt"
 viewBox="0.00 0.00 598.00 173.80" xmlns="http://www.w3.org/2000/svg" xmlns:xlink="http://www.w3.org/1999/xlink">
<g id="graph0" class="graph" transform="scale(1 1) rotate(0) translate(4 169.8)">
<title>dependencies</title>
<polygon fill="white" stroke="transparent" points="-4,4 -4,-169.8 594,-169.8 594,4 -4,4"/>
<text text-anchor="middle" x="295" y="-8.2" font-family="sans-serif" font-size="14.00">dependencies</text>
<g id="clust1" class="cluster">
<title>cluster_MainModule</title>
<polygon fill="none" stroke="black" stroke-dasharray="1,5" points="8,-32.8 8,-157.8 582,-157.8 582,-32.8 8,-32.8"/>
</g>
<g id="clust3" class="cluster">
<title>cluster_MainModule_imports</title>
<polygon fill="none" stroke="black" points="16,-40.8 16,-92.8 574,-92.8 574,-40.8 16,-40.8"/>
</g>
<!-- AppConfigModule -->
<g id="node1" class="node">
<title>AppConfigModule</title>
<polygon fill="#8dd3c7" stroke="black" points="566.05,-84.8 563.05,-88.8 542.05,-88.8 539.05,-84.8 443.95,-84.8 443.95,-48.8 566.05,-48.8 566.05,-84.8"/>
<text text-anchor="middle" x="505" y="-62.6" font-family="Times,serif" font-size="14.00">AppConfigModule</text>
</g>
<!-- MainModule -->
<g id="node5" class="node">
<title>MainModule</title>
<polygon fill="#8dd3c7" stroke="black" points="329.6,-149.8 326.6,-153.8 305.6,-153.8 302.6,-149.8 240.4,-149.8 240.4,-113.8 329.6,-113.8 329.6,-149.8"/>
<text text-anchor="middle" x="285" y="-127.6" font-family="Times,serif" font-size="14.00">MainModule</text>
</g>
<!-- AppConfigModule&#45;&gt;MainModule -->
<g id="edge1" class="edge">
<title>AppConfigModule&#45;&gt;MainModule</title>
<path fill="none" stroke="black" d="M505,-84.91C505,-104.14 505,-131.8 505,-131.8 505,-131.8 339.79,-131.8 339.79,-131.8"/>
<polygon fill="black" stroke="black" points="339.79,-128.3 329.79,-131.8 339.79,-135.3 339.79,-128.3"/>
</g>
<!-- PetsResolverModule -->
<g id="node2" class="node">
<title>PetsResolverModule</title>
<polygon fill="#8dd3c7" stroke="black" points="425.16,-84.8 422.16,-88.8 401.16,-88.8 398.16,-84.8 292.84,-84.8 292.84,-48.8 425.16,-48.8 425.16,-84.8"/>
<text text-anchor="middle" x="359" y="-62.6" font-family="Times,serif" font-size="14.00">PetsResolverModule</text>
</g>
<!-- PetsResolverModule&#45;&gt;MainModule -->
<g id="edge2" class="edge">
<title>PetsResolverModule&#45;&gt;MainModule</title>
<path fill="none" stroke="black" d="M311.11,-84.91C311.11,-84.91 311.11,-103.79 311.11,-103.79"/>
<polygon fill="black" stroke="black" points="307.61,-103.79 311.11,-113.79 314.61,-103.79 307.61,-103.79"/>
</g>
<!-- PinoLoggerModule -->
<g id="node3" class="node">
<title>PinoLoggerModule</title>
<polygon fill="#8dd3c7" stroke="black" points="274.66,-84.8 271.66,-88.8 250.66,-88.8 247.66,-84.8 149.34,-84.8 149.34,-48.8 274.66,-48.8 274.66,-84.8"/>
<text text-anchor="middle" x="212" y="-62.6" font-family="Times,serif" font-size="14.00">PinoLoggerModule</text>
</g>
<!-- PinoLoggerModule&#45;&gt;MainModule -->
<g id="edge3" class="edge">
<title>PinoLoggerModule&#45;&gt;MainModule</title>
<path fill="none" stroke="black" d="M257.64,-84.91C257.64,-84.91 257.64,-103.79 257.64,-103.79"/>
<polygon fill="black" stroke="black" points="254.14,-103.79 257.64,-113.79 261.14,-103.79 254.14,-103.79"/>
</g>
<!-- PostgresModule -->
<g id="node4" class="node">
<title>PostgresModule</title>
<polygon fill="#8dd3c7" stroke="black" points="131.5,-84.8 128.5,-88.8 107.5,-88.8 104.5,-84.8 24.5,-84.8 24.5,-48.8 131.5,-48.8 131.5,-84.8"/>
<text text-anchor="middle" x="78" y="-62.6" font-family="Times,serif" font-size="14.00">PostgresModule</text>
</g>
<!-- PostgresModule&#45;&gt;MainModule -->
<g id="edge4" class="edge">
<title>PostgresModule&#45;&gt;MainModule</title>
<path fill="none" stroke="black" d="M78,-84.91C78,-104.14 78,-131.8 78,-131.8 78,-131.8 230.34,-131.8 230.34,-131.8"/>
<polygon fill="black" stroke="black" points="230.34,-135.3 240.34,-131.8 230.34,-128.3 230.34,-135.3"/>
</g>
</g>
</svg>
