<?xml version="1.0" encoding="UTF-8" standalone="no"?>
<!DOCTYPE svg PUBLIC "-//W3C//DTD SVG 1.1//EN"
 "http://www.w3.org/Graphics/SVG/1.1/DTD/svg11.dtd">
<!-- Generated by graphviz version 5.0.0 (20220707.1540)
 -->
<!-- Title: dependencies Pages: 1 -->
<svg width="412pt" height="247pt"
 viewBox="0.00 0.00 412.00 246.80" xmlns="http://www.w3.org/2000/svg" xmlns:xlink="http://www.w3.org/1999/xlink">
<g id="graph0" class="graph" transform="scale(1 1) rotate(0) translate(4 242.8)">
<title>dependencies</title>
<polygon fill="white" stroke="transparent" points="-4,4 -4,-242.8 408,-242.8 408,4 -4,4"/>
<text text-anchor="middle" x="202" y="-8.2" font-family="sans-serif" font-size="14.00">dependencies</text>
<g id="clust1" class="cluster">
<title>cluster_PetsServiceModule</title>
<polygon fill="none" stroke="black" stroke-dasharray="1,5" points="8,-32.8 8,-230.8 396,-230.8 396,-32.8 8,-32.8"/>
</g>
<g id="clust4" class="cluster">
<title>cluster_PetsServiceModule_exports</title>
<polygon fill="none" stroke="black" points="164,-170.8 164,-222.8 264,-222.8 264,-170.8 164,-170.8"/>
</g>
<g id="clust6" class="cluster">
<title>cluster_PetsServiceModule_providers</title>
<polygon fill="none" stroke="black" points="150,-40.8 150,-92.8 388,-92.8 388,-40.8 150,-40.8"/>
</g>
<g id="clust3" class="cluster">
<title>cluster_PetsServiceModule_imports</title>
<polygon fill="none" stroke="black" points="16,-40.8 16,-92.8 142,-92.8 142,-40.8 16,-40.8"/>
</g>
<!-- PetsCoreModule -->
<g id="node1" class="node">
<title>PetsCoreModule</title>
<polygon fill="#8dd3c7" stroke="black" points="134.1,-84.8 131.1,-88.8 110.1,-88.8 107.1,-84.8 23.9,-84.8 23.9,-48.8 134.1,-48.8 134.1,-84.8"/>
<text text-anchor="middle" x="79" y="-62.6" font-family="Times,serif" font-size="14.00">PetsCoreModule</text>
</g>
<!-- PetsServiceModule -->
<g id="node2" class="node">
<title>PetsServiceModule</title>
<polygon fill="#8dd3c7" stroke="black" points="276.37,-149.8 273.37,-153.8 252.37,-153.8 249.37,-149.8 151.63,-149.8 151.63,-113.8 276.37,-113.8 276.37,-149.8"/>
<text text-anchor="middle" x="214" y="-127.6" font-family="Times,serif" font-size="14.00">PetsServiceModule</text>
</g>
<!-- PetsCoreModule&#45;&gt;PetsServiceModule -->
<g id="edge1" class="edge">
<title>PetsCoreModule&#45;&gt;PetsServiceModule</title>
<path fill="none" stroke="black" d="M79,-84.91C79,-104.14 79,-131.8 79,-131.8 79,-131.8 141.24,-131.8 141.24,-131.8"/>
<polygon fill="black" stroke="black" points="141.24,-135.3 151.24,-131.8 141.24,-128.3 141.24,-135.3"/>
</g>
<!-- PetsService  -->
<g id="node3" class="node">
<title>PetsService </title>
<polygon fill="#fb8072" stroke="black" points="256.32,-214.8 171.68,-214.8 171.68,-178.8 256.32,-178.8 256.32,-214.8"/>
<text text-anchor="middle" x="214" y="-192.6" font-family="Times,serif" font-size="14.00">PetsService </text>
</g>
<!-- PetsServiceModule&#45;&gt;PetsService  -->
<g id="edge2" class="edge">
<title>PetsServiceModule&#45;&gt;PetsService </title>
<path fill="none" stroke="black" stroke-dasharray="5,2" d="M214,-149.91C214,-149.91 214,-168.79 214,-168.79"/>
<polygon fill="black" stroke="black" points="210.5,-168.79 214,-178.79 217.5,-168.79 210.5,-168.79"/>
</g>
<!-- PetsCore -->
<g id="node4" class="node">
<title>PetsCore</title>
<ellipse fill="#fdb462" stroke="black" cx="334" cy="-66.8" rx="45.81" ry="18"/>
<text text-anchor="middle" x="334" y="-62.6" font-family="Times,serif" font-size="14.00">PetsCore</text>
</g>
<!-- PetsCore&#45;&gt;PetsServiceModule -->
<g id="edge3" class="edge">
<title>PetsCore&#45;&gt;PetsServiceModule</title>
<path fill="none" stroke="black" d="M334,-84.91C334,-104.14 334,-131.8 334,-131.8 334,-131.8 286.46,-131.8 286.46,-131.8"/>
<polygon fill="black" stroke="black" points="286.46,-128.3 276.46,-131.8 286.46,-135.3 286.46,-128.3"/>
</g>
<!-- PetsService -->
<g id="node5" class="node">
<title>PetsService</title>
<ellipse fill="#fdb462" stroke="black" cx="214" cy="-66.8" rx="56.18" ry="18"/>
<text text-anchor="middle" x="214" y="-62.6" font-family="Times,serif" font-size="14.00">PetsService</text>
</g>
<!-- PetsService&#45;&gt;PetsServiceModule -->
<g id="edge4" class="edge">
<title>PetsService&#45;&gt;PetsServiceModule</title>
<path fill="none" stroke="black" d="M214,-84.91C214,-84.91 214,-103.79 214,-103.79"/>
<polygon fill="black" stroke="black" points="210.5,-103.79 214,-113.79 217.5,-103.79 210.5,-103.79"/>
</g>
</g>
</svg>
