<?xml version="1.0" encoding="UTF-8" standalone="no"?>
<!DOCTYPE svg PUBLIC "-//W3C//DTD SVG 1.1//EN"
 "http://www.w3.org/Graphics/SVG/1.1/DTD/svg11.dtd">
<!-- Generated by graphviz version 5.0.0 (20220707.1540)
 -->
<!-- Title: dependencies Pages: 1 -->
<svg width="162pt" height="174pt"
 viewBox="0.00 0.00 162.00 173.80" xmlns="http://www.w3.org/2000/svg" xmlns:xlink="http://www.w3.org/1999/xlink">
<g id="graph0" class="graph" transform="scale(1 1) rotate(0) translate(4 169.8)">
<title>dependencies</title>
<polygon fill="white" stroke="transparent" points="-4,4 -4,-169.8 158,-169.8 158,4 -4,4"/>
<text text-anchor="middle" x="77" y="-8.2" font-family="sans-serif" font-size="14.00">dependencies</text>
<g id="clust1" class="cluster">
<title>cluster_AppConfigModule</title>
<polygon fill="none" stroke="black" stroke-dasharray="1,5" points="8,-32.8 8,-157.8 146,-157.8 146,-32.8 8,-32.8"/>
</g>
<g id="clust4" class="cluster">
<title>cluster_AppConfigModule_exports</title>
<polygon fill="none" stroke="black" points="19,-97.8 19,-149.8 135,-149.8 135,-97.8 19,-97.8"/>
</g>
<!-- ConfigService  -->
<g id="node1" class="node">
<title>ConfigService </title>
<polygon fill="#fb8072" stroke="black" points="127.37,-141.8 26.63,-141.8 26.63,-105.8 127.37,-105.8 127.37,-141.8"/>
<text text-anchor="middle" x="77" y="-119.6" font-family="Times,serif" font-size="14.00">ConfigService </text>
</g>
<!-- AppConfigModule -->
<g id="node2" class="node">
<title>AppConfigModule</title>
<polygon fill="#8dd3c7" stroke="black" points="138.05,-76.8 135.05,-80.8 114.05,-80.8 111.05,-76.8 15.95,-76.8 15.95,-40.8 138.05,-40.8 138.05,-76.8"/>
<text text-anchor="middle" x="77" y="-54.6" font-family="Times,serif" font-size="14.00">AppConfigModule</text>
</g>
<!-- AppConfigModule&#45;&gt;ConfigService  -->
<g id="edge1" class="edge">
<title>AppConfigModule&#45;&gt;ConfigService </title>
<path fill="none" stroke="black" stroke-dasharray="5,2" d="M77,-76.91C77,-76.91 77,-95.79 77,-95.79"/>
<polygon fill="black" stroke="black" points="73.5,-95.79 77,-105.79 80.5,-95.79 73.5,-95.79"/>
</g>
</g>
</svg>
